#!OML:ASF E:/inclinewalkrobotboard/Project1/Captureday1/Session1/subject1.ASF
:FULLY-SPECIFIED
:DEGREES
163
root 0 0 0 -0.3905255002820466 -2.0285503776816323 -3.880259723117996
lowerback 16.481332572604803 1.1077958996385218 -0.11421622651423458
upperback 0.6924314846089139 1.4526652438648178 0.3303139169871584
thorax -8.572330865608286 0.6883267885976679 0.05080108582023035
lowerneck -7.465380267573521 -3.270086535139278 1.2817069843122746
upperneck -5.736272904494147 -4.248297949453158 1.7598703839588874
head -0.6476254638734282 -2.1985382822708908 0.24699707762845094
rclavicle -3.7992572639235885E-16 1.608884296104398E-17
rhumerus 12.071253990805076 0.474448118667679 -39.46897822524985
rradius 118.69760569567431
rwrist -30.765892615263464
rhand -11.688668498427164 -36.5090861461489
rfingers 7.125019999999963
rthumb 14.395199783968465 -65.9263992410228
lclavicle -4.1012293654980344E-16 -4.658562405323807E-16
lhumerus -43.308873539004196 -0.38948899146648963 83.1463842962796
lradius 45.22396195633944
lwrist 1.9602581988160768
lhand -15.62272431322059 -12.08536139575372
lfingers 7.125019999999933
lthumb 10.521000797176079 17.048334840164195
rfemur -2.7929614613007923 1.0396114600681137 5.58600668682004
rtibia 8.362873377895623
rfoot -1.5750858572838489 -1.363013693367583
rtoes 0.8009056825578478
lfemur -6.5146508478644165 -3.5704476165143 -12.23440137255363
ltibia 27.406438018990457
lfoot -19.268702008386533 7.972030155048055
ltoes -43.31105150602366
164
root 0 0 0 -0.38984721090118735 -2.0284317484111636 -3.88112262034529
lowerback 16.48009488372179 1.1084873699685378 -0.11361494184108778
upperback 0.69231898923565 1.453616955638041 0.33001617510720216
thorax -8.571713252914192 0.6888003174375944 0.05006519389778763
lowerneck -7.463590758541181 -3.270346559193879 1.2816213359317437
upperneck -5.733609228189291 -4.249089348234845 1.7614037163510499
head -0.647186007466301 -2.198755711233861 0.2474650346579862
rclavicle -3.7980741265765536E-16 1.6315334755261464E-17
rhumerus 12.07580356699026 0.4802328307438746 -39.46361385306011
rradius 118.7125151762115
rwrist -30.77285611461039
rhand -11.68648407657435 -36.522831889674706
rfingers 7.125019999999963
rthumb 14.397269279639195 -65.93971995133421
lclavicle -4.0986502904919315E-16 -4.65443345040984E-16
lhumerus -43.31293980025941 -0.3894044443033048 83.14716501476005
lradius 45.229792513333216
lwrist 1.957992446152934
lhand -15.617966732032889 -12.100472352459212
lfingers 7.125019999999933
lthumb 10.525529252787326 17.033981449162724
rfemur -2.7917669655450634 1.039186887482112 5.583635353083231
rtibia 8.359028525576871
rfoot -1.5745264647430566 -1.3624382936087076
rtoes 0.8004727737989326
lfemur -6.513115766003511 -3.571543310765355 -12.23108449378349
ltibia 27.40317353481174
lfoot -19.27480545925922 7.977337721125565
ltoes -43.32861079440464
165
root 0 0 0 -0.3916296423003678 -2.027890791544677 -3.881037818659076
lowerback 16.4798007013372 1.1114184157254663 -0.11220126021059929
upperback 0.6937866935496598 1.4578660845586682 0.3296239105799871
thorax -8.569585785599438 0.690810037017239 0.048390317587828635
lowerneck -7.468336472064442 -3.274377885233571 1.2754317746513744
upperneck -5.7136408042815425 -4.2554360871834085 1.7676743488581246
head -0.6395728003800265 -2.201180732723456 0.24958035072851675
rclavicle -3.7904180244681235E-16 1.5414362919408788E-17
rhumerus 12.070121126238654 0.4568269026065046 -39.47589669250604
rradius 118.6679913909029
rwrist -30.75184277704779
rhand -11.696535152216489 -36.46890848099113
rfingers 7.125019999999963
rthumb 14.388054907047842 -65.88721538405434
lclavicle -4.1160041204200525E-16 -4.653307158876082E-16
lhumerus -43.30411344999476 -0.3888639213078797 83.14670648814986
lradius 45.215792677054985
lwrist 1.9604760132740155
lhand -15.627055130931831 -12.072189682184591
lfingers 7.125019999999933
lthumb 10.517054011657887 17.060987373323435
rfemur -2.7853965825514875 1.036879049140843 5.571383319682212
rtibia 8.341062005380472
rfoot -1.5701630717538793 -1.359079791847995
rtoes 0.7992209532731294
lfemur -6.515768059160785 -3.5697482985383338 -12.236883474794709
ltibia 27.40894328360105
lfoot -19.26439040148091 7.968428633904242
ltoes -43.29863897328615
166
root 0 0 0 -0.3913166535686945 -2.0285152933486876 -3.8797390864815418
lowerback 16.482041921251195 1.1078474112740495 -0.11443250901402413
upperback 0.6921073313764269 1.4527843512198486 0.33032418682309694
thorax -8.573023415020538 0.6883521962518782 0.05091787455656205
lowerneck -7.468103667560675 -3.270656214788686 1.2808063557075817
upperneck -5.737042352089887 -4.248923483460691 1.7598493884058033
head -0.6471541395726197 -2.1988497338871813 0.24701361743547554
rclavicle -3.804015043827524E-16 1.567423391844694E-17
rhumerus 12.062260205514534 0.46306333792215426 -39.479490579149996
rradius 118.66863237676486
rwrist -30.75220342706975
rhand -11.692908717037003 -36.48272241598957
rfingers 7.125019999999963
rthumb 14.391204744002847 -65.9008790370617
lclavicle -4.0959864415647926E-16 -4.658781838926304E-16
lhumerus -43.309021156579746 -0.38891820027767876 83.14639458347254
lradius 45.222953753837665
lwrist 1.9596223461094984
lhand -15.622761252492829 -12.085126070532771
lfingers 7.125019999999933
lthumb 10.521082330441121 17.04823601891728
rfemur -2.787258916174215 1.0372493292408773 5.573942234548806
rtibia 8.346242260505228
rfoot -1.5712881984501332 -1.3600393511891982
rtoes 0.799166039570409
lfemur -6.515137485837703 -3.5700055643785333 -12.23618948553286
ltibia 27.407800326822144
lfoot -19.26556856024408 7.969194479085708
ltoes -43.30169369356726
167
root 0 0 0 -0.39099256372600855 -2.0287793935549265 -3.879668746209933
lowerback 16.483651161374436 1.1068194892950383 -0.11506195165742639
upperback 0.6912629240301573 1.451286381792642 0.3303773602476562
thorax -8.574837549488652 0.6876258648258493 0.051431070342515484
lowerneck -7.467434763145218 -3.269518345967867 1.2829969674254351
upperneck -5.748719538454733 -4.246936421976394 1.7573353298548817
head -0.6512332895714028 -2.198171923871115 0.24617053997344318
rclavicle -3.8012373597854253E-16 1.582177534262187E-17
rhumerus 12.064990049566504 0.4681086008083142 -39.47582548738021
rradius 118.68002056730461
rwrist -30.757467703895195
rhand -11.690918500800013 -36.49442084688937
rfingers 7.125019999999963
rthumb 14.393075399951845 -65.91213153347044
lclavicle -4.096116111919236E-16 -4.657977453745456E-16
lhumerus -43.310723436735536 -0.38923373188112254 83.14650558271445
lradius 45.226054698054796
lwrist 1.9592691634766704
lhand -15.620852839614377 -12.091104364828267
lfingers 7.125019999999933
lthumb 10.522779385355967 17.04263599287558
rfemur -2.790009186818012 1.038377457981619 5.579751815070493
rtibia 8.35431639031245
rfoot -1.5730767160617152 -1.3614751434193866
rtoes 0.800030641938138
lfemur -6.514563618774161 -3.570417516278198 -12.234739956442473
ltibia 27.40651731839889
lfoot -19.268259095015146 7.971589891937233
ltoes -43.309545005849785
